<svg xmlns="http://www.w3.org/2000/svg" width="200" height="200" viewBox="0 0 200 200">
    <g fill="none" fill-rule="evenodd">
        <circle cx="100" cy="100" r="100" fill="#EFF1F2"/>
        <g fill-rule="nonzero">
            <path fill="#00A1DC" d="M140.648 150H51.13a3.129 3.129 0 0 1-3.02-3.946l20.332-55.742A3.128 3.128 0 0 1 71.462 88h89.518c2.06 0 3.02 1.968 3.02 3.946l-20.332 55.742a3.128 3.128 0 0 1-3.02 2.312z"/>
            <path fill="#0086B8" d="M148.536 70H98L88 56H51.464A3.464 3.464 0 0 0 48 59.464v85.456c.138.004.276.012.41.02l20.03-54.628A3.125 3.125 0 0 1 71.46 88H152V73.464A3.464 3.464 0 0 0 148.536 70z"/>
        </g>
    </g>
</svg>
