<svg xmlns="http://www.w3.org/2000/svg" xmlns:xlink="http://www.w3.org/1999/xlink" width="141" height="32" viewBox="0 0 141 32">
    <defs>
        <path id="a" d="M.012.118h31.87V32H.013z"/>
    </defs>
    <g fill="none" fill-rule="evenodd">
        <path fill="#FFF" d="M3.84 3.84h22.4v23.04H3.84z"/>
        <g>
            <mask id="b" fill="#fff">
                <use xlink:href="#a"/>
            </mask>
            <path fill="#00A1DC" d="M24.482 23.678a.142.142 0 0 0 .002-.203l-1.21-1.213a.136.136 0 0 0-.188-.002c-.34.296-.769.457-1.222.457a1.867 1.867 0 0 1-1.317-3.183c.673-.67 1.823-.703 2.54-.085a.135.135 0 0 0 .186-.003l1.213-1.214a.142.142 0 0 0-.002-.204A3.825 3.825 0 0 0 21.864 17a3.83 3.83 0 0 0-2.725 1.13 3.855 3.855 0 0 0 .003 5.447 3.816 3.816 0 0 0 2.722 1.128 3.82 3.82 0 0 0 2.618-1.026zm-10.714-9.569a.143.143 0 0 0 .002-.203l-1.214-1.212a.136.136 0 0 0-.186-.003c-.715.615-1.868.585-2.54-.088a1.859 1.859 0 0 1-.545-1.32c0-.498.194-.966.545-1.317a1.865 1.865 0 0 1 2.54-.089c.054.048.135.05.186-.002l1.214-1.213a.143.143 0 0 0-.003-.204 3.857 3.857 0 0 0-5.343.101 3.82 3.82 0 0 0-1.13 2.724c0 1.03.401 1.998 1.129 2.725a3.829 3.829 0 0 0 2.725 1.13c.98 0 1.905-.365 2.62-1.029zM8.8 24.61L24.49 8.916a.139.139 0 0 0 0-.196l-1.21-1.212a.139.139 0 0 0-.196 0L7.393 23.201a.139.139 0 0 0 0 .196l1.21 1.212a.139.139 0 0 0 .197 0zM1.885 3.658a5.873 5.873 0 0 1 3.759-2.514 52.59 52.59 0 0 1 20.568-.02 5.952 5.952 0 0 1 2.131.88 5.858 5.858 0 0 1 2.512 3.756 52.607 52.607 0 0 1 .025 20.572l-.006-.002a5.887 5.887 0 0 1-4.639 4.646 52.614 52.614 0 0 1-20.567.02 5.914 5.914 0 0 1-2.13-.882 5.87 5.87 0 0 1-2.512-3.76 52.614 52.614 0 0 1-.022-20.566 5.888 5.888 0 0 1 .881-2.13z" mask="url(#b)"/>
        </g>
        <g fill="#343434">
            <path d="M39.043 16.247c0-2.87 2.216-5.281 5.24-5.281 1.83 0 2.993.65 3.912 1.608.071.074.07.192.001.266l-1.176 1.271c-.074.08-.2.08-.277.002-.666-.668-1.39-1.118-2.48-1.118-1.682 0-2.908 1.452-2.908 3.252 0 1.796 1.247 3.252 3.025 3.252 1.022 0 1.793-.458 2.484-1.129a.191.191 0 0 1 .268-.002l1.13 1.113a.196.196 0 0 1 .006.271c-.969 1.037-2.117 1.753-4.005 1.753-3.004 0-5.22-2.35-5.22-5.258M50.875 11.177h1.93c.106 0 .192.086.192.192v2.085c.607-1.455 1.71-2.466 3.38-2.471a.2.2 0 0 1 .196.197l.002 2.072a.19.19 0 0 1-.187.187c-2.163.07-3.39 1.388-3.39 3.992v3.655a.192.192 0 0 1-.193.192h-1.93a.192.192 0 0 1-.192-.192v-9.717c0-.106.086-.192.192-.192M65.327 15.519c-.15-1.49-1.031-2.658-2.562-2.658-1.414 0-2.41 1.092-2.619 2.658h5.181zm-7.44.013c.251-2.497 2.304-4.528 4.813-4.566 3.203-.048 5.158 2.536 4.902 5.902a.199.199 0 0 1-.196.182h-7.243c.249 1.645 1.418 2.563 2.908 2.563 1.07 0 1.848-.377 2.609-1.084a.191.191 0 0 1 .257-.006l1.084.962c.08.07.089.195.018.274-.945 1.065-2.231 1.746-4.006 1.746-3.135 0-5.501-2.44-5.146-5.973zM77.773 16.209c0-1.95-1.377-3.235-2.927-3.235-1.588 0-2.906 1.226-2.906 3.273 0 1.95 1.336 3.23 2.906 3.23 1.55 0 2.927-1.3 2.927-3.268zm-8.166 0c0-3.348 2.274-5.243 4.688-5.243 1.66 0 2.713.843 3.44 1.782V7.504c0-.106.086-.192.193-.192h1.93c.106 0 .192.086.192.192v13.582a.192.192 0 0 1-.192.192h-1.93a.192.192 0 0 1-.192-.192v-1.49c-.746 1.05-1.797 1.892-3.441 1.892-2.374 0-4.688-1.892-4.688-5.28zM89.388 18.484v-5.317h-1.091a.192.192 0 0 1-.192-.191v-1.607c0-.106.086-.192.192-.192h1.09V8.595c0-.106.086-.192.192-.192h1.928c.106 0 .192.086.192.192v2.582h2.526c.106 0 .191.086.191.192v1.607a.192.192 0 0 1-.191.191h-2.526v4.951c0 .904.462 1.263 1.247 1.263.416 0 .793-.073 1.165-.221.129-.052.269.033.269.171v1.482c0 .072-.04.14-.102.173-.55.293-1.173.464-1.984.464-1.703 0-2.906-.746-2.906-2.966M100.952 16.247c0-2.87 2.218-5.281 5.242-5.281 1.828 0 2.995.65 3.913 1.608.07.074.07.192.001.266l-1.174 1.271c-.074.08-.2.08-.277.003-.669-.668-1.39-1.119-2.483-1.119-1.683 0-2.908 1.452-2.908 3.252 0 1.796 1.245 3.252 3.024 3.252 1.021 0 1.795-.458 2.489-1.13a.191.191 0 0 1 .268 0l1.127 1.112a.195.195 0 0 1 .006.27c-.969 1.037-2.119 1.754-4.006 1.754-3.004 0-5.222-2.35-5.222-5.258M112.75 7.312h1.931c.106 0 .192.086.192.192v13.582a.192.192 0 0 1-.192.192h-1.931a.192.192 0 0 1-.192-.192V7.504c0-.106.085-.192.192-.192M118.114 17.603v-6.234c0-.106.086-.192.192-.192h1.932c.106 0 .192.086.192.192v5.546c0 1.569.786 2.466 2.162 2.466 1.341 0 2.277-.936 2.277-2.503V11.37c0-.106.086-.192.192-.192h1.93c.107 0 .192.086.192.192v9.717a.192.192 0 0 1-.191.192h-1.93a.192.192 0 0 1-.193-.192v-1.378c-.652.956-1.59 1.78-3.155 1.78-2.277 0-3.6-1.531-3.6-3.885M138.514 16.209c0-1.95-1.318-3.235-2.885-3.235-1.57 0-2.947 1.302-2.947 3.273 0 1.95 1.377 3.23 2.947 3.23 1.585 0 2.885-1.24 2.885-3.268zm-5.776 3.5v1.377a.192.192 0 0 1-.192.192h-1.928a.192.192 0 0 1-.192-.192V7.504c0-.106.086-.192.192-.192h1.928c.106 0 .192.086.192.192v5.357c.747-1.052 1.8-1.895 3.424-1.895 2.393 0 4.706 1.895 4.706 5.281 0 3.349-2.296 5.241-4.706 5.241-1.663 0-2.714-.842-3.424-1.78zM83.596 11.177h1.931c.106 0 .192.086.192.192v9.717a.192.192 0 0 1-.192.192h-1.931a.192.192 0 0 1-.192-.192v-9.717c0-.106.086-.192.192-.192M83.48 7.729c-.095.475-.1.977 0 1.483a.423.423 0 0 0 .336.335c.475.094.977.099 1.483-.002a.424.424 0 0 0 .335-.335c.094-.475.099-.978-.002-1.483a.423.423 0 0 0-.335-.335 3.79 3.79 0 0 0-1.483.002.425.425 0 0 0-.335.335M97.134 19.408c-.095.476-.1.978.001 1.484a.424.424 0 0 0 .335.334c.476.095.978.1 1.483-.001a.424.424 0 0 0 .335-.335c.095-.476.1-.978-.001-1.484a.424.424 0 0 0-.335-.334 3.802 3.802 0 0 0-1.484.001.424.424 0 0 0-.334.335"/>
        </g>
    </g>
</svg>
