<svg xmlns="http://www.w3.org/2000/svg" xmlns:xlink="http://www.w3.org/1999/xlink" width="100" height="63" viewBox="0 0 100 63">
    <defs>
        <path id="a" d="M0 0h40v40H0z"/>
    </defs>
    <g fill="none" fill-rule="evenodd">
        <g transform="translate(30)">
            <mask id="b" fill="#fff">
                <use xlink:href="#a"/>
            </mask>
            <path fill="#FFF" d="M4 4h34v31H4z" mask="url(#b)"/>
            <path fill="#00A1DC" fill-rule="nonzero" d="M30.715 29.559a.179.179 0 0 0 .003-.255l-1.519-1.521a.17.17 0 0 0-.235-.003 2.318 2.318 0 0 1-1.534.574 2.342 2.342 0 0 1-1.652-3.994c.844-.841 2.287-.882 3.186-.107a.17.17 0 0 0 .234-.004l1.522-1.523a.179.179 0 0 0-.002-.255 4.799 4.799 0 0 0-3.288-1.291 4.804 4.804 0 0 0-3.419 1.417 4.837 4.837 0 0 0 .004 6.834 4.787 4.787 0 0 0 3.415 1.416c1.23 0 2.39-.455 3.285-1.288zM17.273 17.553a.179.179 0 0 0 .003-.255l-1.523-1.52a.17.17 0 0 0-.234-.003c-.896.77-2.343.734-3.187-.11a2.332 2.332 0 0 1-.683-1.657c0-.625.243-1.213.683-1.652a2.34 2.34 0 0 1 3.186-.112.17.17 0 0 0 .235-.003l1.523-1.522a.18.18 0 0 0-.003-.255 4.84 4.84 0 0 0-6.705.127 4.793 4.793 0 0 0-1.416 3.417 4.8 4.8 0 0 0 1.415 3.419 4.803 4.803 0 0 0 3.419 1.417 4.8 4.8 0 0 0 3.287-1.29zM11.04 30.727l19.686-19.689a.174.174 0 0 0 0-.246l-1.52-1.52a.174.174 0 0 0-.245 0L9.275 28.961a.174.174 0 0 0 0 .246l1.52 1.52a.174.174 0 0 0 .245 0zM2.365 4.441A7.368 7.368 0 0 1 7.08 1.287c8.796-1.75 17.53-1.673 25.806-.026a7.467 7.467 0 0 1 2.673 1.106 7.35 7.35 0 0 1 3.151 4.711c1.753 8.802 1.676 17.536.032 25.811l-.008-.003a7.386 7.386 0 0 1-5.82 5.829 66.007 66.007 0 0 1-25.803.024 7.42 7.42 0 0 1-2.673-1.105 7.365 7.365 0 0 1-3.151-4.717c-1.75-8.799-1.672-17.53-.028-25.804a7.388 7.388 0 0 1 1.106-2.672z" mask="url(#b)"/>
        </g>
        <g fill="#FFF">
            <path d="M.562 57.302c0-2.777 2.144-5.109 5.07-5.109 1.77 0 2.894.628 3.783 1.556a.189.189 0 0 1 .001.257l-1.138 1.23a.186.186 0 0 1-.268.002c-.644-.647-1.344-1.082-2.399-1.082-1.627 0-2.813 1.405-2.813 3.146 0 1.737 1.207 3.145 2.927 3.145.988 0 1.734-.443 2.402-1.092a.185.185 0 0 1 .26-.002l1.092 1.077a.19.19 0 0 1 .006.262c-.937 1.002-2.047 1.696-3.874 1.696-2.905 0-5.049-2.273-5.049-5.086M12.007 52.398h1.867c.103 0 .186.083.186.185V54.6c.587-1.407 1.654-2.386 3.268-2.39.103 0 .19.087.19.19l.002 2.004c0 .1-.082.178-.18.181-2.093.069-3.28 1.343-3.28 3.862v3.535a.186.186 0 0 1-.186.186h-1.867a.186.186 0 0 1-.186-.186v-9.399c0-.102.083-.185.186-.185M25.986 56.597c-.145-1.442-.997-2.571-2.479-2.571-1.367 0-2.33 1.056-2.532 2.57h5.011zm-7.196.013c.242-2.415 2.229-4.38 4.655-4.416 3.098-.047 4.99 2.452 4.741 5.708a.192.192 0 0 1-.19.176h-7.005c.24 1.592 1.372 2.479 2.813 2.479 1.035 0 1.787-.365 2.523-1.048a.185.185 0 0 1 .249-.006l1.049.93a.19.19 0 0 1 .017.266c-.914 1.03-2.158 1.689-3.875 1.689-3.032 0-5.321-2.36-4.977-5.778zM38.024 57.265c0-1.887-1.331-3.129-2.83-3.129-1.537 0-2.812 1.186-2.812 3.166 0 1.885 1.293 3.125 2.812 3.125 1.499 0 2.83-1.259 2.83-3.162zm-7.899 0c0-3.239 2.2-5.072 4.535-5.072 1.607 0 2.625.816 3.328 1.724v-5.073c0-.102.083-.185.186-.185h1.867c.103 0 .186.083.186.185v13.138a.186.186 0 0 1-.186.186h-1.867a.185.185 0 0 1-.186-.186V60.54c-.721 1.015-1.738 1.83-3.328 1.83-2.296 0-4.535-1.83-4.535-5.106zM49.259 59.465v-5.142h-1.055a.186.186 0 0 1-.186-.186v-1.554c0-.102.083-.185.186-.185h1.055V49.9c0-.103.083-.186.185-.186h1.865c.102 0 .186.083.186.186v2.498h2.443c.102 0 .185.083.185.185v1.554a.185.185 0 0 1-.185.186h-2.443v4.789c0 .873.446 1.221 1.206 1.221.402 0 .767-.07 1.127-.214.124-.05.26.032.26.166v1.433a.19.19 0 0 1-.1.168c-.53.282-1.134.448-1.918.448-1.647 0-2.811-.722-2.811-2.87M60.445 57.302c0-2.777 2.145-5.109 5.07-5.109 1.768 0 2.897.628 3.785 1.556a.189.189 0 0 1 .001.257l-1.136 1.23a.185.185 0 0 1-.267.002c-.648-.646-1.346-1.082-2.402-1.082-1.628 0-2.813 1.405-2.813 3.146 0 1.737 1.204 3.145 2.924 3.145.989 0 1.737-.443 2.408-1.093a.185.185 0 0 1 .26 0l1.09 1.076c.07.07.074.188.005.262-.937 1.002-2.049 1.696-3.874 1.696-2.906 0-5.051-2.273-5.051-5.086M71.856 48.659h1.868c.103 0 .186.083.186.185v13.138a.186.186 0 0 1-.186.186h-1.868a.185.185 0 0 1-.186-.186V48.844c0-.102.083-.185.186-.185M77.045 58.613v-6.03c0-.102.083-.185.186-.185h1.868c.103 0 .186.083.186.185v5.365c0 1.517.76 2.385 2.091 2.385 1.297 0 2.203-.905 2.203-2.421v-5.329c0-.102.083-.185.186-.185h1.867c.102 0 .185.083.185.185v9.399a.185.185 0 0 1-.185.186h-1.867a.186.186 0 0 1-.186-.186v-1.333c-.63.925-1.538 1.722-3.052 1.722-2.203 0-3.482-1.481-3.482-3.758M96.777 57.265c0-1.887-1.275-3.129-2.791-3.129-1.518 0-2.85 1.259-2.85 3.166 0 1.885 1.332 3.125 2.85 3.125 1.533 0 2.79-1.201 2.79-3.162zm-5.587 3.384v1.333a.186.186 0 0 1-.186.186h-1.865a.186.186 0 0 1-.185-.186V48.844c0-.102.083-.185.185-.185h1.865c.103 0 .186.083.186.185v5.182c.723-1.017 1.74-1.833 3.312-1.833 2.315 0 4.552 1.833 4.552 5.109 0 3.239-2.22 5.069-4.552 5.069-1.608 0-2.625-.815-3.312-1.722zM43.657 52.398h1.868c.102 0 .186.083.186.185v9.399a.186.186 0 0 1-.186.186h-1.868a.186.186 0 0 1-.186-.186v-9.399c0-.102.083-.185.186-.185M43.544 49.062c-.092.46-.096.945.001 1.435a.41.41 0 0 0 .324.324c.46.09.946.095 1.435-.002a.41.41 0 0 0 .324-.324c.091-.46.096-.946-.002-1.435a.41.41 0 0 0-.324-.324 3.666 3.666 0 0 0-1.434.002.41.41 0 0 0-.324.324M56.751 60.36c-.091.46-.095.945.002 1.434a.41.41 0 0 0 .324.324c.46.091.945.096 1.434-.002a.41.41 0 0 0 .324-.324 3.67 3.67 0 0 0-.001-1.435.41.41 0 0 0-.324-.323 3.678 3.678 0 0 0-1.435.001.41.41 0 0 0-.324.324"/>
        </g>
    </g>
</svg>
