<svg xmlns="http://www.w3.org/2000/svg" xmlns:xlink="http://www.w3.org/1999/xlink" width="20" height="20" viewBox="0 0 20 20">
    <defs>
        <path id="a" d="M0 0h20v20H0z"/>
    </defs>
    <g fill="none" fill-rule="evenodd">
        <mask id="b" fill="#fff">
            <use xlink:href="#a"/>
        </mask>
        <path fill="#00A1DC" fill-rule="nonzero" d="M15.358 14.78a.09.09 0 0 0 .001-.128l-.76-.76a.085.085 0 0 0-.117-.002 1.159 1.159 0 0 1-.767.287 1.171 1.171 0 0 1-.826-1.997c.422-.42 1.144-.441 1.593-.054.035.03.085.03.117-.002l.761-.761a.09.09 0 0 0-.001-.128 2.4 2.4 0 0 0-1.644-.645 2.419 2.419 0 0 0 0 4.833c.615 0 1.195-.227 1.643-.644zM8.637 8.776a.09.09 0 0 0 0-.128l-.76-.76a.085.085 0 0 0-.117-.002c-.449.386-1.172.367-1.594-.055a1.166 1.166 0 0 1-.341-.828 1.17 1.17 0 0 1 1.935-.882c.034.03.084.03.117-.002l.76-.76a.09.09 0 0 0 0-.128 2.42 2.42 0 0 0-4.061 1.772 2.4 2.4 0 0 0 .708 1.71 2.402 2.402 0 0 0 1.709.708 2.4 2.4 0 0 0 1.644-.645zM5.52 15.364l9.843-9.845a.087.087 0 0 0 0-.123l-.76-.76a.087.087 0 0 0-.123 0L4.637 14.48a.087.087 0 0 0 0 .123l.76.76a.087.087 0 0 0 .123 0zM1.183 2.22A3.684 3.684 0 0 1 3.54.644 32.988 32.988 0 0 1 16.443.63c.492.1.943.29 1.337.553a3.675 3.675 0 0 1 1.575 2.356c.877 4.4.838 8.768.016 12.906l-.004-.002a3.693 3.693 0 0 1-2.91 2.914 33.003 33.003 0 0 1-12.901.013 3.71 3.71 0 0 1-1.337-.553 3.682 3.682 0 0 1-1.576-2.358A33.007 33.007 0 0 1 .63 3.557c.098-.493.29-.943.553-1.336z" mask="url(#b)"/>
    </g>
</svg>
