<svg xmlns="http://www.w3.org/2000/svg" xmlns:xlink="http://www.w3.org/1999/xlink" width="106" height="20" viewBox="0 0 106 20">
    <defs>
        <path id="a" d="M0 0h20v20H0z"/>
    </defs>
    <g fill="none" fill-rule="evenodd">
        <g>
            <mask id="b" fill="#fff">
                <use xlink:href="#a"/>
            </mask>
            <path fill="#00A1DC" fill-rule="nonzero" d="M15.358 14.78a.09.09 0 0 0 .001-.128l-.76-.76a.085.085 0 0 0-.117-.002 1.159 1.159 0 0 1-.767.287 1.171 1.171 0 0 1-.826-1.997c.422-.42 1.144-.441 1.593-.054.035.03.085.03.117-.002l.761-.761a.09.09 0 0 0-.001-.128 2.4 2.4 0 0 0-1.644-.645 2.419 2.419 0 0 0 0 4.833c.615 0 1.195-.227 1.643-.644zM8.637 8.776a.09.09 0 0 0 0-.128l-.76-.76a.085.085 0 0 0-.117-.002c-.449.386-1.172.367-1.594-.055a1.166 1.166 0 0 1-.341-.828 1.17 1.17 0 0 1 1.935-.882c.034.03.084.03.117-.002l.76-.76a.09.09 0 0 0 0-.128 2.42 2.42 0 0 0-4.061 1.772 2.4 2.4 0 0 0 .708 1.71 2.402 2.402 0 0 0 1.709.708 2.4 2.4 0 0 0 1.644-.645zM5.52 15.364l9.843-9.845a.087.087 0 0 0 0-.123l-.76-.76a.087.087 0 0 0-.123 0L4.637 14.48a.087.087 0 0 0 0 .123l.76.76a.087.087 0 0 0 .123 0zM1.183 2.22A3.684 3.684 0 0 1 3.54.644 32.988 32.988 0 0 1 16.443.63c.492.1.943.29 1.337.553a3.675 3.675 0 0 1 1.575 2.356c.877 4.4.838 8.768.016 12.906l-.004-.002a3.693 3.693 0 0 1-2.91 2.914 33.003 33.003 0 0 1-12.901.013 3.71 3.71 0 0 1-1.337-.553 3.682 3.682 0 0 1-1.576-2.358A33.007 33.007 0 0 1 .63 3.557c.098-.493.29-.943.553-1.336z" mask="url(#b)"/>
        </g>
        <g fill="#343434">
            <path d="M26.45 10.441c0-2.221 1.715-4.087 4.055-4.087 1.416 0 2.316.503 3.027 1.245a.151.151 0 0 1 0 .206l-.91.984a.148.148 0 0 1-.214.001c-.515-.517-1.075-.865-1.92-.865-1.3 0-2.25 1.124-2.25 2.516 0 1.39.966 2.517 2.342 2.517.79 0 1.387-.355 1.922-.874a.148.148 0 0 1 .207-.001l.874.86c.058.057.06.151.005.21-.75.802-1.638 1.357-3.1 1.357-2.323 0-4.038-1.818-4.038-4.069M35.605 6.518H37.1c.082 0 .149.067.149.149V8.28c.47-1.126 1.324-1.908 2.615-1.912.082 0 .152.07.152.152l.001 1.603c0 .08-.065.143-.145.145-1.673.055-2.623 1.075-2.623 3.09v2.827a.149.149 0 0 1-.149.149h-1.494a.149.149 0 0 1-.148-.149V6.667c0-.082.066-.149.148-.149M46.789 9.877c-.117-1.153-.798-2.056-1.983-2.056-1.094 0-1.864.845-2.026 2.056h4.009zm-5.757.01c.194-1.931 1.783-3.503 3.724-3.532 2.479-.038 3.992 1.962 3.793 4.567a.154.154 0 0 1-.152.14h-5.604c.192 1.274 1.097 1.984 2.25 1.984.828 0 1.43-.292 2.019-.839a.148.148 0 0 1 .199-.005l.839.745c.061.054.068.15.014.212-.732.824-1.727 1.351-3.1 1.351-2.426 0-4.257-1.888-3.982-4.622zM56.42 10.412c0-1.51-1.066-2.503-2.265-2.503-1.23 0-2.25.948-2.25 2.532 0 1.509 1.035 2.5 2.25 2.5 1.199 0 2.264-1.007 2.264-2.53zm-6.32 0c0-2.591 1.76-4.058 3.628-4.058 1.285 0 2.1.653 2.663 1.38V3.676c0-.083.066-.15.148-.15h1.494c.082 0 .149.067.149.15v10.51a.149.149 0 0 1-.149.148H56.54a.148.148 0 0 1-.148-.149v-1.153c-.577.813-1.39 1.465-2.663 1.465-1.837 0-3.628-1.465-3.628-4.085zM65.407 12.172V8.058h-.844a.148.148 0 0 1-.149-.148V6.667c0-.082.067-.149.149-.149h.844V4.52c0-.082.067-.149.148-.149h1.492c.082 0 .149.067.149.149v1.998h1.954c.082 0 .148.067.148.149V7.91a.148.148 0 0 1-.148.148h-1.954v3.831c0 .7.357.978.965.978.321 0 .613-.057.901-.172.1-.04.208.026.208.133v1.146c0 .056-.03.108-.079.134-.425.227-.908.359-1.535.359-1.318 0-2.249-.577-2.249-2.295M74.356 10.441c0-2.221 1.716-4.087 4.056-4.087 1.414 0 2.318.503 3.028 1.245a.151.151 0 0 1 0 .206l-.908.984a.148.148 0 0 1-.214.002c-.518-.518-1.076-.866-1.921-.866-1.303 0-2.25 1.124-2.25 2.516 0 1.39.963 2.517 2.339 2.517.79 0 1.39-.355 1.926-.875a.148.148 0 0 1 .208 0l.871.86c.058.057.06.151.005.21-.75.802-1.639 1.357-3.1 1.357-2.324 0-4.04-1.818-4.04-4.069M83.485 3.527h1.495c.082 0 .148.066.148.149v10.51a.149.149 0 0 1-.148.148h-1.495a.148.148 0 0 1-.149-.149V3.675c0-.082.067-.148.149-.148M87.636 11.49V6.667c0-.082.067-.149.149-.149h1.494c.082 0 .149.067.149.149v4.291c0 1.214.608 1.909 1.673 1.909 1.038 0 1.762-.725 1.762-1.938V6.667c0-.082.067-.149.149-.149h1.494c.082 0 .148.067.148.149v7.518a.148.148 0 0 1-.148.149h-1.494a.149.149 0 0 1-.149-.149V13.12c-.504.74-1.23 1.378-2.441 1.378-1.763 0-2.786-1.185-2.786-3.007M103.422 10.412c0-1.51-1.02-2.503-2.233-2.503-1.215 0-2.28 1.007-2.28 2.532 0 1.509 1.065 2.5 2.28 2.5 1.227 0 2.233-.96 2.233-2.53zm-4.47 2.707v1.066a.149.149 0 0 1-.149.149h-1.491a.149.149 0 0 1-.15-.149V3.675c0-.082.068-.148.15-.148h1.491c.082 0 .149.066.149.149V7.82c.578-.814 1.393-1.467 2.65-1.467 1.851 0 3.641 1.467 3.641 4.087 0 2.591-1.776 4.056-3.642 4.056-1.286 0-2.1-.652-2.65-1.378zM60.925 6.518h1.495c.082 0 .148.067.148.149v7.518a.149.149 0 0 1-.148.149h-1.495a.149.149 0 0 1-.148-.149V6.667c0-.082.066-.149.148-.149M60.835 3.85c-.073.367-.076.756.001 1.147a.328.328 0 0 0 .26.26c.368.072.756.076 1.147-.002a.328.328 0 0 0 .26-.259 2.934 2.934 0 0 0-.002-1.148.328.328 0 0 0-.26-.259 2.933 2.933 0 0 0-1.147.001.329.329 0 0 0-.259.26M71.401 12.887a2.93 2.93 0 0 0 .001 1.148.328.328 0 0 0 .26.26c.368.072.756.076 1.147-.002a.328.328 0 0 0 .26-.26v.001a2.935 2.935 0 0 0-.002-1.148.328.328 0 0 0-.26-.26 2.942 2.942 0 0 0-1.147.002.328.328 0 0 0-.259.26"/>
        </g>
    </g>
</svg>
