<svg xmlns="http://www.w3.org/2000/svg" xmlns:xlink="http://www.w3.org/1999/xlink" width="200" height="200" viewBox="0 0 200 200">
    <defs>
        <circle id="a" cx="100" cy="100" r="100"/>
    </defs>
    <g fill="none" fill-rule="evenodd">
        <mask id="b" fill="#fff">
            <use xlink:href="#a"/>
        </mask>
        <use fill="#FFF" xlink:href="#a"/>
        <path fill="#D66" d="M132 84.46c0 17.938-14.335 39.54-32 39.54s-32-21.602-32-39.54c0-11.597 6.1-22.313 16-28.111a31.608 31.608 0 0 1 32 0c9.9 5.798 16 16.514 16 28.11zm29 94.414c0 2.408-31.947 24.126-61 24.126-28.527 0-61-20.086-61-24.126C39 152.434 73.803 131 100 131c26.197 0 61 21.433 61 47.874z" mask="url(#b)"/>
    </g>
</svg>
